<?xml version="1.0" encoding="UTF-8"?>
<svg width="400" height="400" version="1.1" xmlns="http://www.w3.org/2000/svg">
 <path d="m150.53 371.75h-30.572q6.6701-31.313 6.6701-56.697v-201.78q0-31.498 5.5604-46.877 5.7425-15.379 22.048-27.052 16.49-11.858 41.134-11.858 29.275 0 49.101 15.564 20.01 15.379 20.01 43.913 0 33.351-31.684 54.659 47.248 22.234 47.248 69.852 0 25.94-12.599 46.507-12.414 20.381-28.904 29.09-16.305 8.7085-39.096 8.7085-25.94 0-42.245-19.455v34.463q0 35.575-6.6701 60.959zm6.6702-112.1q14.452 23.902 40.393 23.902 25.013 0 36.686-18.158 11.673-18.343 11.673-44.469 0-20.011-7.7822-40.763-7.5966-20.937-19.64-31.869-11.117 2.7791-20.011 2.7791-18.713 0-18.713-9.8202 0-8.8936 15.749-8.8936 9.8203 0 24.458 4.4471 13.155-22.234 13.155-48.359 0-23.346-10.376-35.76-10.191-12.414-26.681-12.414-13.155 0-22.604 7.4113-9.2642 7.4116-12.785 17.787-3.5229 10.191-3.5229 33.537z"
 
 
 fill="#491312" stroke="#1d0b0b" stroke-width="6"
/>
</svg>
