<?xml version="1.0" encoding="UTF-8"?>
<svg width="400" height="400" version="1.1" xmlns="http://www.w3.org/2000/svg">
 <path d="m180.26 152.38q29.09-36.501 57.068-36.501 43.727 0 43.727 64.294v137.48q0 35.204 7.0412 54.103h-31.313q-6.2996-17.417-6.2996-63.738v-131.92q0-19.084-5.9292-28.163-5.929-9.2643-20.752-9.2643-22.234 0-43.542 24.643v127.29h-30.572v-127.29q0-17.231-3.5172-23.716-3.3351-6.4849-11.488-6.4849-13.155 0-16.12 25.94h-6.6702q3.5229-43.172 35.575-43.172 14.267 0 23.346 10.006 9.0793 9.82 9.4498 26.496z"
 
 
 fill="#491312" stroke="#1d0b0b" stroke-width="6"
/>
</svg>
