<?xml version="1.0" encoding="UTF-8"?>
<svg width="400" height="400" version="1.1" xmlns="http://www.w3.org/2000/svg">
 <path d="m164.61 115.87v80.97l48.174-50.953q28.719-30.016 53.918-30.016 9.8202 0 15.749 4.6322 6.1147 4.6322 6.1147 12.044 0 7.2261-4.8147 11.488-4.6328 4.2615-10.746 4.2615-5.3726 0-14.267-4.8176-8.8936-4.8176-13.711-4.8176-9.6347 0-21.308 12.599l-32.425 35.019 61.144 76.708q15.935 20.011 42.245 20.752v6.8556h-60.032l-70.038-90.975v90.975h-30.757v-103.76q0-30.572-2.4074-38.354-2.4074-7.9673-10.932-7.9673-5.1905 0-12.599 2.7791l-2.5953-6.6704 51.139-20.752z"
 
 fill="#491312" stroke="#1d0b0b" stroke-width="6"
/>
</svg>
