<?xml version="1.0" encoding="UTF-8"?>
<svg width="400" height="400" version="1.1" xmlns="http://www.w3.org/2000/svg">
 <path d="m201.67 27.494q31.313 0 52.806 36.686 21.493 36.501 21.493 95.237 0 63.367-23.161 99.869-23.16 36.501-53.547 36.501-29.831 0-52.621-35.389-22.605-35.575-22.605-96.348 0-60.959 22.42-98.757 22.605-37.798 55.215-37.798zm39.837 127.85q0-117.1-41.134-117.1-42.245 0-42.245 117.1zm-83.379 11.488q0 60.588 11.303 89.493 11.302 28.719 30.387 28.719 41.318 0 41.689-118.21z" 
 
 fill="#491312" stroke="#1d0b0b" stroke-width="6"
/>
</svg>
